<?xml version="1.0" encoding="UTF-8" standalone="no"?>
<svg width="108px" height="134px" viewBox="0 0 108 134" version="1.1" xmlns="http://www.w3.org/2000/svg" xmlns:xlink="http://www.w3.org/1999/xlink" xmlns:sketch="http://www.bohemiancoding.com/sketch/ns">
    <!-- Generator: Sketch 3.3.3 (12072) - http://www.bohemiancoding.com/sketch -->
    <title>dssg-logo-mini</title>
    <desc>Created with Sketch.</desc>
    <defs></defs>
    <g id="Page-1" stroke="none" stroke-width="1" fill="none" fill-rule="evenodd" sketch:type="MSPage">
        <g id="mini-logo-copy" sketch:type="MSLayerGroup">
            <path d="M25.1032951,123.162272 L50.8087745,87.5315027 L51.9731909,85.9174869 L48.7392035,83.592943 L47.5747871,85.2069588 L21.8693076,120.837728 L20.7048913,122.451744 L23.9388787,124.776288 L25.1032951,123.162272 L25.1032951,123.162272 Z" id="Shape" fill="#5FCAFF" sketch:type="MSShapeGroup"></path>
            <path d="M95.6471743,66.7847738 L48.4896401,84.5078507 L46.6248257,85.2086984 L48.0291072,88.9314585 L49.8939216,88.2306108 L97.0514558,70.5075339 L98.9162702,69.8066862 L97.5119887,66.0839261 L95.6471743,66.7847738 L95.6471743,66.7847738 Z" id="Shape" fill="#5FCAFF" sketch:type="MSShapeGroup"></path>
            <path d="M7.27945004,56.1822152 L47.9643815,87.9360613 L49.5341029,89.1612002 L51.9889015,86.0275391 L50.4191801,84.8024002 L9.73424859,53.0485541 L8.16452721,51.8234152 L5.70972867,54.9570763 L7.27945004,56.1822152 L7.27945004,56.1822152 Z" id="Shape" fill="#5FCAFF" sketch:type="MSShapeGroup"></path>
            <ellipse id="glow" fill="#5FCAFF" sketch:type="MSShapeGroup" cx="49.3767123" cy="86.3692308" rx="16.8287671" ry="16.8"></ellipse>
            <ellipse id="satellite-1" fill="#5FCAFF" sketch:type="MSShapeGroup" cx="100.232877" cy="66.8" rx="7.76712329" ry="7.75384615"></ellipse>
            <ellipse id="satellite-1-copy" fill="#5FCAFF" sketch:type="MSShapeGroup" cx="8.22945205" cy="54.1538462" rx="8.22945205" ry="8.21538462"></ellipse>
            <ellipse id="satellite-1-copy-2" fill="#5FCAFF" sketch:type="MSShapeGroup" cx="21.8219178" cy="123.661538" rx="10.3561644" ry="10.3384615"></ellipse>
            <ellipse id="body" fill="#000000" sketch:type="MSShapeGroup" cx="49.3767123" cy="86.3692308" rx="13.5" ry="13.4769231"></ellipse>
            <rect id="head" fill="#000000" sketch:type="MSShapeGroup" x="44.0136986" y="54.0615385" width="10.9109589" height="35.6307692" rx="1"></rect>
            <path d="M48.2059741,1.0029907 C48.2099546,0.449054232 48.6583808,0 49.2086678,0 L49.7735696,0 C50.3233615,0 50.7707794,0.447006226 50.772923,1.0029907 L51.0350759,68.9970093 C51.0372116,69.5509458 50.5900106,70 50.040203,70 L48.7089157,70 C48.1573269,70 47.7133879,69.5529938 47.7173831,68.9970093 L48.2059741,1.0029907 Z" id="tower" fill="#000000" sketch:type="MSShapeGroup"></path>
        </g>
    </g>
</svg>